<svg width="60" height="60" viewBox="0 0 60 60" fill="#000000" xmlns="http://www.w3.org/2000/svg">
<path d="M39.275 20.725C39.0426 20.4907 38.7661 20.3047 38.4615 20.1778C38.1568 20.0509 37.83 19.9855 37.5 19.9855C37.17 19.9855 36.8432 20.0509 36.5386 20.1778C36.2339 20.3047 35.9574 20.4907 35.725 20.725L30 26.475L24.275 20.725C23.8043 20.2543 23.1658 19.9898 22.5 19.9898C21.8343 19.9898 21.1958 20.2543 20.725 20.725C20.2543 21.1958 19.9898 21.8343 19.9898 22.5C19.9898 23.1658 20.2543 23.8043 20.725 24.275L26.475 30L20.725 35.725C20.4907 35.9574 20.3047 36.2339 20.1778 36.5386C20.0509 36.8432 19.9855 37.17 19.9855 37.5C19.9855 37.83 20.0509 38.1568 20.1778 38.4615C20.3047 38.7661 20.4907 39.0426 20.725 39.275C20.9574 39.5093 21.2339 39.6953 21.5386 39.8222C21.8432 39.9492 22.17 40.0145 22.5 40.0145C22.83 40.0145 23.1568 39.9492 23.4615 39.8222C23.7661 39.6953 24.0426 39.5093 24.275 39.275L30 33.525L35.725 39.275C35.9574 39.5093 36.2339 39.6953 36.5386 39.8222C36.8432 39.9492 37.17 40.0145 37.5 40.0145C37.83 40.0145 38.1568 39.9492 38.4615 39.8222C38.7661 39.6953 39.0426 39.5093 39.275 39.275C39.5093 39.0426 39.6953 38.7661 39.8222 38.4615C39.9492 38.1568 40.0145 37.83 40.0145 37.5C40.0145 37.17 39.9492 36.8432 39.8222 36.5386C39.6953 36.2339 39.5093 35.9574 39.275 35.725L33.525 30L39.275 24.275C39.5093 24.0426 39.6953 23.7661 39.8222 23.4615C39.9492 23.1568 40.0145 22.83 40.0145 22.5C40.0145 22.17 39.9492 21.8432 39.8222 21.5386C39.6953 21.2339 39.5093 20.9574 39.275 20.725ZM47.675 12.325C45.3688 9.93726 42.6102 8.03271 39.5601 6.72248C36.51 5.41226 33.2295 4.7226 29.91 4.69375C26.5906 4.66491 23.2986 5.29745 20.2262 6.55447C17.1538 7.8115 14.3625 9.66782 12.0151 12.0151C9.66782 14.3625 7.8115 17.1538 6.55447 20.2262C5.29745 23.2986 4.66491 26.5906 4.69375 29.91C4.7226 33.2295 5.41226 36.51 6.72248 39.5601C8.03271 42.6102 9.93726 45.3688 12.325 47.675C14.6312 50.0628 17.3898 51.9673 20.4399 53.2776C23.49 54.5878 26.7705 55.2774 30.09 55.3063C33.4095 55.3351 36.7015 54.7026 39.7739 53.4456C42.8463 52.1885 45.6376 50.3322 47.9849 47.9849C50.3322 45.6376 52.1885 42.8463 53.4456 39.7739C54.7026 36.7015 55.3351 33.4095 55.3063 30.09C55.2774 26.7705 54.5878 23.49 53.2776 20.4399C51.9673 17.3898 50.0628 14.6312 47.675 12.325ZM44.15 44.15C40.8801 47.4235 36.5764 49.4621 31.972 49.9183C27.3676 50.3745 22.7475 49.2202 18.8988 46.6519C15.0501 44.0837 12.2109 40.2605 10.8649 35.8337C9.51898 31.4069 9.74953 26.6504 11.5173 22.3745C13.2851 18.0986 16.4807 14.5679 20.5597 12.3839C24.6388 10.2 29.3489 9.49784 33.8875 10.3972C38.4262 11.2966 42.5126 13.7417 45.4506 17.3162C48.3886 20.8906 49.9964 25.3731 50 30C50.0089 32.6282 49.4965 35.2321 48.4923 37.661C47.4882 40.0898 46.0123 42.2954 44.15 44.15Z" fill="#000000"/>
</svg>
