<svg width="12" height="12" viewBox="0 0 12 12" fill="none" xmlns="http://www.w3.org/2000/svg">
<path d="M10.6667 3.66667L7.16666 0.598337C6.84581 0.311363 6.43045 0.15271 5.99999 0.15271C5.56953 0.15271 5.15417 0.311363 4.83333 0.598337L1.33333 3.66667C1.14804 3.83238 1.00019 4.03566 0.899603 4.26298C0.79902 4.4903 0.748018 4.73643 0.749994 4.985V10.0833C0.749994 10.5475 0.934369 10.9926 1.26256 11.3208C1.59075 11.649 2.03587 11.8333 2.49999 11.8333H9.49999C9.96412 11.8333 10.4092 11.649 10.7374 11.3208C11.0656 10.9926 11.25 10.5475 11.25 10.0833V4.97917C11.2511 4.73158 11.1997 4.48657 11.0992 4.26032C10.9986 4.03407 10.8512 3.83173 10.6667 3.66667ZM7.16666 10.6667H4.83333V7.75C4.83333 7.59529 4.89479 7.44692 5.00418 7.33752C5.11358 7.22813 5.26195 7.16667 5.41666 7.16667H6.58333C6.73804 7.16667 6.88641 7.22813 6.99581 7.33752C7.1052 7.44692 7.16666 7.59529 7.16666 7.75V10.6667ZM10.0833 10.0833C10.0833 10.238 10.0219 10.3864 9.91247 10.4958C9.80308 10.6052 9.6547 10.6667 9.49999 10.6667H8.33333V7.75C8.33333 7.28587 8.14895 6.84075 7.82076 6.51257C7.49258 6.18438 7.04746 6 6.58333 6H5.41666C4.95253 6 4.50741 6.18438 4.17922 6.51257C3.85104 6.84075 3.66666 7.28587 3.66666 7.75V10.6667H2.49999C2.34528 10.6667 2.19691 10.6052 2.08752 10.4958C1.97812 10.3864 1.91666 10.238 1.91666 10.0833V4.97917C1.91677 4.89635 1.93451 4.81449 1.9687 4.73906C2.0029 4.66362 2.05277 4.59633 2.11499 4.54167L5.61499 1.47917C5.72145 1.38565 5.8583 1.33408 5.99999 1.33408C6.14169 1.33408 6.27854 1.38565 6.38499 1.47917L9.88499 4.54167C9.94722 4.59633 9.99709 4.66362 10.0313 4.73906C10.0655 4.81449 10.0832 4.89635 10.0833 4.97917V10.0833Z" fill="#828282"/>
</svg>
