<svg width="13" height="12" viewBox="0 0 13 12" fill="none" xmlns="http://www.w3.org/2000/svg">
<path d="M12.1642 10.8358L10 8.68917C10.8401 7.64175 11.2469 6.31226 11.1368 4.9741C11.0267 3.63593 10.4081 2.3908 9.40822 1.49471C8.4083 0.598634 7.10305 0.119719 5.76087 0.156446C4.41869 0.193173 3.14159 0.74275 2.19217 1.69217C1.24274 2.64159 0.693168 3.91869 0.656441 5.26088C0.619714 6.60306 1.09863 7.9083 1.99471 8.90823C2.89079 9.90815 4.13593 10.5267 5.47409 10.6368C6.81226 10.7469 8.14174 10.3401 9.18917 9.50001L11.3358 11.6467C11.3901 11.7013 11.4546 11.7447 11.5257 11.7744C11.5967 11.804 11.673 11.8192 11.75 11.8192C11.827 11.8192 11.9033 11.804 11.9743 11.7744C12.0454 11.7447 12.1099 11.7013 12.1642 11.6467C12.2693 11.5379 12.3281 11.3925 12.3281 11.2413C12.3281 11.09 12.2693 10.9446 12.1642 10.8358ZM5.91667 9.50001C5.10906 9.50001 4.31959 9.26052 3.64809 8.81184C2.97659 8.36316 2.45322 7.72543 2.14416 6.9793C1.8351 6.23317 1.75424 5.41214 1.91179 4.62005C2.06935 3.82796 2.45825 3.10038 3.02931 2.52932C3.60038 1.95826 4.32796 1.56936 5.12005 1.4118C5.91214 1.25424 6.73316 1.33511 7.47929 1.64416C8.22542 1.95322 8.86315 2.47659 9.31183 3.14809C9.76052 3.81959 10 4.60907 10 5.41667C10 6.49964 9.56979 7.53825 8.80402 8.30402C8.03825 9.0698 6.99963 9.50001 5.91667 9.50001Z" fill="#504ED3"/>
</svg>
