<svg width="13" height="12" viewBox="0 0 13 12" fill="none" xmlns="http://www.w3.org/2000/svg">
<path d="M11.9367 4.57084L10.8342 4.20334L11.3533 3.16501C11.406 3.05632 11.4236 2.93399 11.4037 2.81487C11.3839 2.69576 11.3275 2.58575 11.2425 2.50001L9.99999 1.25751C9.91379 1.17122 9.80272 1.11413 9.68239 1.09425C9.56206 1.07437 9.43853 1.0927 9.32916 1.14667L8.29082 1.66584L7.92332 0.56334C7.88451 0.448419 7.81084 0.348455 7.71256 0.27736C7.61428 0.206265 7.49629 0.167575 7.37499 0.166674H5.62499C5.5027 0.166358 5.3834 0.204485 5.28396 0.275665C5.18451 0.346845 5.10996 0.447478 5.07082 0.56334L4.70332 1.66584L3.66499 1.14667C3.55631 1.09405 3.43397 1.07644 3.31486 1.09629C3.19575 1.11615 3.08573 1.17247 2.99999 1.25751L1.75749 2.50001C1.67121 2.5862 1.61411 2.69728 1.59423 2.81761C1.57435 2.93794 1.59269 3.06147 1.64666 3.17084L2.16583 4.20917L1.06333 4.57667C0.948404 4.61549 0.84844 4.68916 0.777345 4.78744C0.70625 4.88571 0.667559 5.00371 0.666658 5.12501V6.87501C0.666343 6.9973 0.704469 7.1166 0.77565 7.21604C0.84683 7.31548 0.947463 7.39004 1.06333 7.42917L2.16583 7.79667L1.64666 8.83501C1.59403 8.94369 1.57643 9.06603 1.59628 9.18514C1.61613 9.30425 1.67246 9.41427 1.75749 9.50001L2.99999 10.7425C3.08619 10.8288 3.19726 10.8859 3.31759 10.9058C3.43792 10.9256 3.56146 10.9073 3.67082 10.8533L4.70916 10.3342L5.07666 11.4367C5.11579 11.5525 5.19035 11.6532 5.28979 11.7243C5.38923 11.7955 5.50853 11.8337 5.63082 11.8333H7.38082C7.50312 11.8337 7.62242 11.7955 7.72186 11.7243C7.8213 11.6532 7.89586 11.5525 7.93499 11.4367L8.30249 10.3342L9.34082 10.8533C9.44881 10.9046 9.56996 10.9215 9.68786 10.9017C9.80576 10.8819 9.91472 10.8263 9.99999 10.7425L11.2425 9.50001C11.3288 9.41381 11.3859 9.30274 11.4058 9.18241C11.4256 9.06208 11.4073 8.93854 11.3533 8.82917L10.8342 7.79084L11.9367 7.42334C12.0516 7.38453 12.1515 7.31086 12.2226 7.21258C12.2937 7.1143 12.3324 6.9963 12.3333 6.87501V5.12501C12.3336 5.00271 12.2955 4.88342 12.2243 4.78397C12.1532 4.68453 12.0525 4.60997 11.9367 4.57084ZM11.1667 6.45501L10.4667 6.68834C10.3057 6.74055 10.158 6.82716 10.0339 6.94215C9.9097 7.05714 9.81205 7.19776 9.74768 7.35426C9.6833 7.51076 9.65374 7.67939 9.66105 7.84846C9.66835 8.01752 9.71235 8.18298 9.78999 8.33334L10.1225 8.99834L9.48082 9.64001L8.83332 9.29C8.68373 9.21548 8.51987 9.17396 8.35284 9.16826C8.18581 9.16257 8.0195 9.19282 7.86518 9.25699C7.71085 9.32115 7.57212 9.41772 7.45836 9.54016C7.3446 9.6626 7.25848 9.80805 7.20582 9.96667L6.97249 10.6667H6.04499L5.81166 9.96667C5.75944 9.80571 5.67284 9.65802 5.55785 9.53387C5.44286 9.40972 5.30224 9.31207 5.14574 9.24769C4.98924 9.18332 4.8206 9.15376 4.65154 9.16106C4.48247 9.16837 4.31702 9.21237 4.16666 9.29L3.50166 9.62251L2.85999 8.98084L3.20999 8.33334C3.28763 8.18298 3.33163 8.01752 3.33893 7.84846C3.34624 7.67939 3.31668 7.51076 3.25231 7.35426C3.18793 7.19776 3.09028 7.05714 2.96613 6.94215C2.84197 6.82716 2.69429 6.74055 2.53332 6.68834L1.83332 6.45501V5.54501L2.53332 5.31167C2.69429 5.25946 2.84197 5.17285 2.96613 5.05786C3.09028 4.94287 3.18793 4.80225 3.25231 4.64575C3.31668 4.48925 3.34624 4.32062 3.33893 4.15155C3.33163 3.98249 3.28763 3.81704 3.20999 3.66667L2.87749 3.01917L3.51916 2.37751L4.16666 2.71001C4.31702 2.78764 4.48247 2.83164 4.65154 2.83895C4.8206 2.84626 4.98924 2.8167 5.14574 2.75232C5.30224 2.68794 5.44286 2.59029 5.55785 2.46614C5.67284 2.34199 5.75944 2.19431 5.81166 2.03334L6.04499 1.33334H6.95499L7.18832 2.03334C7.24054 2.19431 7.32714 2.34199 7.44213 2.46614C7.55712 2.59029 7.69775 2.68794 7.85425 2.75232C8.01075 2.8167 8.17938 2.84626 8.34844 2.83895C8.51751 2.83164 8.68296 2.78764 8.83332 2.71001L9.49832 2.37751L10.14 3.01917L9.78999 3.66667C9.71546 3.81627 9.67394 3.98013 9.66825 4.14716C9.66255 4.31419 9.69281 4.4805 9.75697 4.63482C9.82113 4.78914 9.9177 4.92788 10.0401 5.04164C10.1626 5.15539 10.308 5.24152 10.4667 5.29417L11.1667 5.52751V6.45501ZM6.49999 3.66667C6.0385 3.66667 5.58738 3.80352 5.20366 4.05991C4.81995 4.3163 4.52088 4.68072 4.34427 5.10708C4.16767 5.53344 4.12146 6.00259 4.21149 6.45522C4.30152 6.90784 4.52375 7.3236 4.85008 7.64992C5.1764 7.97624 5.59216 8.19847 6.04478 8.2885C6.4974 8.37854 6.96656 8.33233 7.39292 8.15573C7.81928 7.97912 8.1837 7.68005 8.44009 7.29634C8.69648 6.91262 8.83332 6.4615 8.83332 6.00001C8.83332 5.38117 8.58749 4.78768 8.14991 4.35009C7.71232 3.91251 7.11883 3.66667 6.49999 3.66667ZM6.49999 7.16667C6.26925 7.16667 6.04368 7.09825 5.85183 6.97005C5.65997 6.84186 5.51043 6.65965 5.42213 6.44647C5.33383 6.23329 5.31073 5.99871 5.35574 5.7724C5.40076 5.54609 5.51187 5.33821 5.67503 5.17505C5.83819 5.01189 6.04607 4.90077 6.27239 4.85576C6.4987 4.81074 6.73327 4.83384 6.94645 4.92215C7.15964 5.01045 7.34184 5.15998 7.47004 5.35184C7.59823 5.5437 7.66666 5.76926 7.66666 6.00001C7.66666 6.30943 7.54374 6.60617 7.32495 6.82496C7.10616 7.04376 6.80941 7.16667 6.49999 7.16667Z" fill="#504ED3"/>
</svg>
