<svg width="13" height="12" viewBox="0 0 13 12" fill="#000000" xmlns="http://www.w3.org/2000/svg">
<path d="M11.9367 4.57084L10.8342 4.20334L11.3533 3.16501C11.406 3.05632 11.4236 2.93399 11.4037 2.81487C11.3839 2.69576 11.3275 2.58575 11.2425 2.50001L10 1.25751C9.91381 1.17122 9.80274 1.11413 9.68241 1.09425C9.56208 1.07437 9.43854 1.0927 9.32917 1.14667L8.29084 1.66584L7.92334 0.56334C7.88453 0.448419 7.81086 0.348455 7.71258 0.27736C7.6143 0.206265 7.4963 0.167575 7.37501 0.166674H5.62501C5.50271 0.166358 5.38342 0.204485 5.28397 0.275665C5.18453 0.346845 5.10997 0.447478 5.07084 0.56334L4.70334 1.66584L3.66501 1.14667C3.55632 1.09405 3.43399 1.07644 3.31487 1.09629C3.19576 1.11615 3.08575 1.17247 3.00001 1.25751L1.75751 2.50001C1.67122 2.5862 1.61413 2.69728 1.59425 2.81761C1.57437 2.93794 1.5927 3.06147 1.64667 3.17084L2.16584 4.20917L1.06334 4.57667C0.948419 4.61549 0.848455 4.68916 0.77736 4.78744C0.706265 4.88571 0.667575 5.00371 0.666674 5.12501V6.87501C0.666358 6.9973 0.704485 7.1166 0.775665 7.21604C0.846845 7.31548 0.947478 7.39004 1.06334 7.42917L2.16584 7.79667L1.64667 8.83501C1.59405 8.94369 1.57644 9.06603 1.59629 9.18514C1.61615 9.30425 1.67247 9.41427 1.75751 9.50001L3.00001 10.7425C3.0862 10.8288 3.19728 10.8859 3.31761 10.9058C3.43794 10.9256 3.56147 10.9073 3.67084 10.8533L4.70917 10.3342L5.07667 11.4367C5.11581 11.5525 5.19036 11.6532 5.28981 11.7243C5.38925 11.7955 5.50855 11.8337 5.63084 11.8333H7.38084C7.50313 11.8337 7.62243 11.7955 7.72187 11.7243C7.82132 11.6532 7.89587 11.5525 7.93501 11.4367L8.30251 10.3342L9.34084 10.8533C9.44883 10.9046 9.56997 10.9215 9.68787 10.9017C9.80577 10.8819 9.91473 10.8263 10 10.7425L11.2425 9.50001C11.3288 9.41381 11.3859 9.30274 11.4058 9.18241C11.4256 9.06208 11.4073 8.93854 11.3533 8.82917L10.8342 7.79084L11.9367 7.42334C12.0516 7.38453 12.1516 7.31086 12.2227 7.21258C12.2937 7.1143 12.3324 6.9963 12.3333 6.87501V5.12501C12.3337 5.00271 12.2955 4.88342 12.2243 4.78397C12.1532 4.68453 12.0525 4.60997 11.9367 4.57084ZM11.1667 6.45501L10.4667 6.68834C10.3057 6.74055 10.158 6.82716 10.0339 6.94215C9.90972 7.05714 9.81207 7.19776 9.74769 7.35426C9.68332 7.51076 9.65376 7.67939 9.66106 7.84846C9.66837 8.01752 9.71237 8.18298 9.79001 8.33334L10.1225 8.99834L9.48084 9.64001L8.83334 9.29001C8.68375 9.21548 8.51989 9.17396 8.35285 9.16826C8.18582 9.16257 8.01951 9.19282 7.86519 9.25699C7.71087 9.32115 7.57213 9.41772 7.45838 9.54016C7.34462 9.6626 7.2585 9.80805 7.20584 9.96667L6.97251 10.6667H6.04501L5.81167 9.96667C5.75946 9.80571 5.67285 9.65802 5.55786 9.53387C5.44287 9.40972 5.30225 9.31207 5.14575 9.24769C4.98925 9.18332 4.82062 9.15376 4.65155 9.16106C4.48249 9.16837 4.31704 9.21237 4.16667 9.29001L3.50167 9.62251L2.86001 8.98084L3.21001 8.33334C3.28764 8.18298 3.33164 8.01752 3.33895 7.84846C3.34626 7.67939 3.3167 7.51076 3.25232 7.35426C3.18794 7.19776 3.09029 7.05714 2.96614 6.94215C2.84199 6.82716 2.69431 6.74055 2.53334 6.68834L1.83334 6.45501V5.54501L2.53334 5.31167C2.69431 5.25946 2.84199 5.17285 2.96614 5.05786C3.09029 4.94287 3.18794 4.80225 3.25232 4.64575C3.3167 4.48925 3.34626 4.32062 3.33895 4.15155C3.33164 3.98249 3.28764 3.81704 3.21001 3.66667L2.87751 3.01917L3.51917 2.37751L4.16667 2.71001C4.31704 2.78764 4.48249 2.83164 4.65155 2.83895C4.82062 2.84626 4.98925 2.8167 5.14575 2.75232C5.30225 2.68794 5.44287 2.59029 5.55786 2.46614C5.67285 2.34199 5.75946 2.19431 5.81167 2.03334L6.04501 1.33334H6.95501L7.18834 2.03334C7.24055 2.19431 7.32716 2.34199 7.44215 2.46614C7.55714 2.59029 7.69776 2.68794 7.85426 2.75232C8.01076 2.8167 8.17939 2.84626 8.34846 2.83895C8.51752 2.83164 8.68298 2.78764 8.83334 2.71001L9.49834 2.37751L10.14 3.01917L9.79001 3.66667C9.71548 3.81627 9.67396 3.98013 9.66826 4.14716C9.66257 4.31419 9.69282 4.4805 9.75699 4.63482C9.82115 4.78914 9.91772 4.92788 10.0402 5.04164C10.1626 5.15539 10.3081 5.24152 10.4667 5.29417L11.1667 5.52751V6.45501ZM6.50001 3.66667C6.03852 3.66667 5.58739 3.80352 5.20368 4.05991C4.81996 4.3163 4.52089 4.68072 4.34429 5.10708C4.16768 5.53344 4.12148 6.00259 4.21151 6.45522C4.30154 6.90784 4.52377 7.3236 4.85009 7.64992C5.17641 7.97624 5.59217 8.19847 6.0448 8.2885C6.49742 8.37854 6.96657 8.33233 7.39293 8.15572C7.81929 7.97912 8.18371 7.68005 8.4401 7.29634C8.69649 6.91262 8.83334 6.4615 8.83334 6.00001C8.83334 5.38117 8.58751 4.78768 8.14992 4.35009C7.71234 3.91251 7.11884 3.66667 6.50001 3.66667V3.66667ZM6.50001 7.16667C6.26926 7.16667 6.0437 7.09825 5.85184 6.97005C5.65998 6.84186 5.51045 6.65965 5.42215 6.44647C5.33384 6.23329 5.31074 5.99871 5.35576 5.7724C5.40077 5.54609 5.51189 5.33821 5.67505 5.17505C5.83821 5.01189 6.04609 4.90077 6.2724 4.85576C6.49871 4.81074 6.73329 4.83384 6.94647 4.92215C7.15965 5.01045 7.34186 5.15998 7.47005 5.35184C7.59825 5.5437 7.66667 5.76926 7.66667 6.00001C7.66667 6.30943 7.54376 6.60617 7.32496 6.82496C7.10617 7.04376 6.80943 7.16667 6.50001 7.16667Z" fill="#000000"/>
</svg>
