<svg width="50" height="50" viewBox="0 0 50 50" fill="none" xmlns="http://www.w3.org/2000/svg">
<path opacity="0.1" d="M40.1422 28.5654C40.433 29.4125 40.625 30.3056 40.625 31.25C40.625 35.8449 36.8876 39.5833 32.2917 39.5833H5.20833C4.12024 39.5833 3.11174 39.279 2.21985 38.7882C2.81575 41.6181 5.32874 43.75 8.33332 43.75H35.4166C40.0126 43.75 43.75 40.0116 43.75 35.4167C43.75 32.5771 42.3176 30.0707 40.1422 28.5654Z" fill="black"/>
<path d="M48.9583 18.75H45.7806C45.5649 16.3719 44.6233 14.2015 43.1745 12.4646L45.4244 10.2163C45.8313 9.81045 45.8313 9.1502 45.4244 8.74336C45.0175 8.33643 44.3583 8.33643 43.9515 8.74336L41.7015 10.9919C39.9646 9.54336 37.7944 8.60186 35.4168 8.38623V5.2085C35.4168 4.63272 34.9509 4.1668 34.3751 4.1668C33.7993 4.1668 33.3334 4.63272 33.3334 5.2085V8.43067C30.9837 8.65039 28.818 9.56543 27.0808 11.024L24.7987 8.74346C24.3918 8.33652 23.7326 8.33652 23.3258 8.74346C22.9188 9.15039 22.9188 9.81055 23.3258 10.2164L25.6098 12.4987C24.5132 13.8229 23.7379 15.4088 23.3223 17.1487C22.1789 16.8584 21.0028 16.6668 19.7919 16.6668C12.2855 16.6668 6.07588 22.3594 5.321 29.7516C2.21426 30.9637 0 33.9699 0 37.5C0 42.0949 3.7374 45.8333 8.3333 45.8333H35.4166C41.1601 45.8333 45.8333 41.1601 45.8333 35.4166C45.8333 32.41 44.5334 29.7185 42.489 27.8153C44.3785 25.919 45.5305 23.4617 45.7743 20.8333H48.9583C49.5341 20.8333 50 20.3674 50 19.7916C50 19.2158 49.5341 18.75 48.9583 18.75Z" fill="#303C42"/>
<path d="M43.75 35.4167C43.75 40.0116 40.0126 43.75 35.4167 43.75H8.33331C4.88683 43.75 2.08331 40.9465 2.08331 37.5C2.08331 34.0535 4.88683 31.25 8.33331 31.25C8.90909 31.25 9.37501 30.7841 9.37501 30.2083C9.37501 29.6325 8.90909 29.1666 8.33331 29.1666C8.03839 29.1666 7.75919 29.2237 7.47208 29.2537C8.4296 23.2674 13.6024 18.75 19.7917 18.75C24.6307 18.75 29.0177 21.6206 31.0604 25.9606C30.5577 26.1925 30.069 26.4574 29.6042 26.77C29.1281 27.0915 28.9999 27.7385 29.3214 28.2166C29.6449 28.6937 30.2919 28.8168 30.768 28.4994C32.1433 27.5727 33.7526 27.0834 35.4168 27.0834C40.0126 27.0833 43.75 30.8218 43.75 35.4167Z" fill="#64B5F6"/>
<path opacity="0.1" d="M40.1422 28.5654C40.433 29.4125 40.625 30.3056 40.625 31.25C40.625 35.8449 36.8876 39.5833 32.2917 39.5833H5.20833C4.12024 39.5833 3.11174 39.279 2.21985 38.7882C2.81575 41.6181 5.32874 43.75 8.33332 43.75H35.4166C40.0126 43.75 43.75 40.0116 43.75 35.4167C43.75 32.5771 42.3176 30.0707 40.1422 28.5654Z" fill="black"/>
<path d="M40.7958 26.5419C39.2204 25.5833 37.3915 25 35.4167 25C34.6086 25 33.8185 25.1195 33.0447 25.3002C31.4956 21.8604 28.696 19.2106 25.3016 17.8059C26.2298 13.551 29.9802 10.4167 34.3751 10.4167C39.5448 10.4167 43.7501 14.6221 43.7501 19.7917C43.75 22.3478 42.6763 24.7646 40.7958 26.5419Z" fill="#FFCA28"/>
<path d="M48.9583 18.75H45.7806C45.5649 16.3719 44.6233 14.2015 43.1745 12.4646L45.4244 10.2163C45.8313 9.81045 45.8313 9.1502 45.4244 8.74336C45.0175 8.33643 44.3583 8.33643 43.9515 8.74336L41.7015 10.9919C39.9646 9.54336 37.7944 8.60186 35.4168 8.38623V5.2085C35.4168 4.63272 34.9509 4.1668 34.3751 4.1668C33.7993 4.1668 33.3334 4.63272 33.3334 5.2085V8.43067C30.9837 8.65039 28.818 9.56543 27.0808 11.024L24.7987 8.74346C24.3918 8.33652 23.7326 8.33652 23.3258 8.74346C22.9188 9.15039 22.9188 9.81055 23.3258 10.2164L25.6098 12.4987C24.5132 13.8229 23.7379 15.4088 23.3223 17.1487C22.1789 16.8584 21.0028 16.6668 19.7919 16.6668C12.2855 16.6668 6.07588 22.3594 5.321 29.7516C2.21426 30.9637 0 33.9699 0 37.5C0 42.0949 3.7374 45.8333 8.3333 45.8333H35.4166C41.1601 45.8333 45.8333 41.1601 45.8333 35.4166C45.8333 32.41 44.5334 29.7185 42.489 27.8153C44.3785 25.919 45.5305 23.4617 45.7743 20.8333H48.9583C49.5341 20.8333 50 20.3674 50 19.7916C50 19.2158 49.5341 18.75 48.9583 18.75Z" fill="url(#paint0_linear)"/>
<defs>
<linearGradient id="paint0_linear" x1="7.85832" y1="18.8156" x2="46.2935" y2="36.7406" gradientUnits="userSpaceOnUse">
<stop stop-color="white" stop-opacity="0.2"/>
<stop offset="1" stop-color="white" stop-opacity="0"/>
</linearGradient>
</defs>
</svg>
